# xmcd
#
# Track frame offsets:
#	150
#	14460
#	27667
#	41768
#	53924
#	68563
#	80891
#	94764
#	108687
#	122058
#
# Disc length: 1831 seconds
#
# Revision: 0
# Processed by: cddbd v1.5.2PL0 Copyright (c) Steve Scherf et al.
# Submitted via: EasyCDDAExtractor 16.0.6.1
#
DISCID=8b07250a
DTITLE=Συλλογικός δίσκος - Λαϊκό τραγούδι 1954-1967, 1966-2
DYEAR=2008
DGENRE=Λαϊκή
TTITLE0=Μπλανς Μπέμπα - Το καράβι [Γιώργος Ζαμπέτας-Χαράλαμπος Βασιλειάδης/Νίκ
TTITLE0=ος Βελιώτης]
TTITLE1=Μπιθικώτσης Γρηγόρης - Ας ήταν τ'  όνειρο να βγει [Βαγγέλης Πιτσιλαδής
TTITLE1=Ιωάννης Γιούρκας]
TTITLE2=Αγγελόπουλος Μανώλης - Δεν υπάρχει για μάς χωρισμός [Απόστολος Καλδάρα
TTITLE2=ς]
TTITLE3=Αγγελόπουλος Μανώλης - Βρήκα αγάπη μου [Απόστολος Καλδάρας-Ευτυχία Παπ
TTITLE3=αγιαννοπούλου]
TTITLE4=Ζαγοραίος Σπύρος - Αθήνα και Περαία μου [Γιώργος Μητσάκης]
TTITLE5=Καζαντζίδης Στέλιος - Ένα πιάτο άδειο στο τραπέζι [Θεόδωρος Δερβενιώτη
TTITLE5=ς-Κώστας Βίρβος]
TTITLE6=Ζαμπέτας Γιώργος - Ο πιτσιρικάς [Γιώργος Ζαμπέτας-Κώστας Πρετεντέρης]
TTITLE7=Μπιθικώτσης Γρηγόρης - Μέσα απ' το παλιό μου σπίτι [Δήμος Μούτσης-Γ. Π
TTITLE7=απαδόπουλος]
TTITLE8=Μπιθικώτσης Γρηγόρης - Στο Πέραμα [Χρ. Πήττας]
TTITLE9=Μοσχολιού Βίκυ - Η νύχτα [Σταύρος Ξαρχάκος-Νίκος Γκάτσος]
EXTD=
EXTT0=
EXTT1=
EXTT2=
EXTT3=
EXTT4=
EXTT5=
EXTT6=
EXTT7=
EXTT8=
EXTT9=
PLAYORDER=
